Coordinates
version=1
nRows=8
nColumns=40
inDegrees=yes

Units are S.I. units (second, meters, Newtons, ...)
Angles are in degrees.

endheader
time	pelvis_tilt	pelvis_list	pelvis_rotation	pelvis_tx	pelvis_ty	pelvis_tz	hip_flexion_r	hip_adduction_r	hip_rotation_r	knee_angle_r	knee_angle_r_beta	ankle_angle_r	subtalar_angle_r	mtp_angle_r	hip_flexion_l	hip_adduction_l	hip_rotation_l	knee_angle_l	knee_angle_l_beta	ankle_angle_l	subtalar_angle_l	mtp_angle_l	lumbar_extension	lumbar_bending	lumbar_rotation	arm_flex_r	arm_add_r	arm_rot_r	elbow_flex_r	pro_sup_r	wrist_flex_r	wrist_dev_r	arm_flex_l	arm_add_l	arm_rot_l	elbow_flex_l	pro_sup_l	wrist_flex_l	wrist_dev_l
     58.10042857	     -3.72659088	     -5.69457225	      3.60547225	      0.87909643	      0.93130605	      0.51184551	     10.01538558	      5.32131710	    -15.30832449	     13.25208413	     13.25208413	      9.38620626	      0.24447329	     -6.29990968	     34.65412966	    -12.58518022	      0.89603378	     46.79247483	     46.79247483	     10.96847864	    -19.18869510	     19.94705593	    -10.66289335	      6.38099788	      2.34180315	     21.30990924	    -17.08545743	     -7.27777860	     85.37973977	     44.89264034	      0.00000000	      0.00000000	      4.51232105	     -8.20269979	     -6.89163036	     57.68710507	     47.37362961	      0.00000000	      0.00000000
     58.11335714	     -3.91731249	     -5.77954836	      3.93025384	      0.87760703	      0.93111755	      0.51150332	      9.55814078	      5.40413619	    -15.98999497	     12.66242975	     12.66242975	      9.42045194	      1.05292041	     -6.66843606	     34.80296997	    -12.10457930	      1.22765410	     43.09496937	     43.09496937	      9.97284352	    -18.92694937	     17.82422470	    -10.53944744	      6.54979896	      2.65131997	     22.67949633	    -17.43710607	     -6.65204260	     87.23874413	     44.84079989	      0.00000000	      0.00000000	      4.68080417	     -7.81215419	     -6.86419402	     53.65509620	     47.29303506	      0.00000000	      0.00000000
     58.12628571	     -4.04929215	     -5.90446166	      4.20877104	      0.87633434	      0.93082664	      0.51110839	      9.05429240	      5.57152994	    -16.37692097	     12.11323004	     12.11323004	      9.54230017	      1.50665216	     -6.78604551	     34.84018812	    -11.63240798	      1.75389434	     39.56380380	     39.56380380	      9.50072222	    -18.48113646	     17.11484253	    -10.50057625	      6.77323044	      2.48890924	     24.49429040	    -16.97265260	     -6.48554400	     88.90966161	     44.79948640	      0.00000000	      0.00000000	      3.86683487	     -7.83641285	     -6.61603575	     51.65382234	     47.22656197	      0.00000000	      0.00000000
     58.13921429	     -4.17020492	     -5.97692770	      4.39620305	      0.87529662	      0.93051036	      0.51068756	      8.56123502	      5.64416462	    -16.90104013	     11.66587899	     11.66587899	      9.69244636	      2.33101546	     -7.08909135	     34.62303893	    -11.25268465	      2.02753329	     35.87771114	     35.87771114	      8.27030697	    -17.79061418	     14.39726632	    -10.40177755	      6.90567330	      2.87192743	     25.95976308	    -17.20108401	     -5.88454180	     90.30258497	     44.77293915	      0.00000000	      0.00000000	      3.83093183	     -7.68611263	     -6.11429683	     48.15765524	     47.10253974	      0.00000000	      0.00000000
     58.15214286	     -4.24882797	     -6.12712343	      4.59077242	      0.87446690	      0.93014269	      0.51024595	      7.96970547	      5.85339009	    -17.25103011	     11.11411995	     11.11411995	      9.83092738	      2.87659118	     -7.17441273	     34.46489737	    -11.01076533	      2.30760921	     32.65262048	     32.65262048	      7.96974495	    -16.56983204	     13.96088953	    -10.38883354	      7.12313436	      2.76856471	     27.67159000	    -16.67089424	     -5.54859256	     91.71848653	     44.73552143	      0.00000000	      0.00000000	      2.89384565	     -7.79778943	     -5.72427339	     46.37937949	     47.02295979	      0.00000000	      0.00000000
     58.16507143	     -4.29057012	     -6.24569302	      4.69380196	      0.87387540	      0.92978702	      0.50975772	      7.37823651	      5.99519533	    -17.67931026	     10.69761823	     10.69761823	     10.02523716	      3.68918355	     -7.34795341	     34.12979981	    -10.88604274	      2.23716257	     29.52855990	     29.52855990	      7.31947189	    -15.16542081	     12.54452907	    -10.32178558	      7.30362919	      2.99958314	     29.21365285	    -16.67833093	     -4.73472102	     92.70918959	     44.71536295	      0.00000000	      0.00000000	      2.53024574	     -7.86786066	     -4.77354803	     43.44716381	     46.86087112	      0.00000000	      0.00000000
     58.17800000	     -4.32237612	     -6.41501103	      4.79157010	      0.87346967	      0.92935552	      0.50925230	      6.72634967	      6.23119031	    -17.94671470	     10.18388421	     10.18388421	     10.20815116	      4.30740811	     -7.40028569	     33.88146053	    -10.87057080	      2.05265245	     26.91295385	     26.91295385	      7.10148821	    -13.59659588	     12.33104306	    -10.28936504	      7.52321615	      3.00475642	     30.77444892	    -16.23332409	     -4.24526570	     93.83525669	     44.68798430	      0.00000000	      0.00000000	      1.64471253	     -8.01276499	     -4.08558526	     41.65997381	     46.74452301	      0.00000000	      0.00000000
     58.19092857	     -4.30687071	     -6.55887653	      4.85486242	      0.87324369	      0.92894669	      0.50864744	      6.06384414	      6.41859246	    -18.23371788	      9.78961997	      9.78961997	     10.45174067	      4.96189192	     -7.42990317	     33.55667262	    -10.88503217	      1.67142996	     24.62940289	     24.62940289	      6.75858672	    -12.21258429	     12.11718548	    -10.26108360	      7.71119167	      3.12305717	     32.24891779	    -15.99691375	     -3.46888713	     94.63449929	     44.67075779	      0.00000000	      0.00000000	      0.94723542	     -8.19997183	     -2.90262777	     39.51178964	     46.56447536	      0.00000000	      0.00000000
